Dik Trom (2010) DIVX 




Nederland
Komedie
85 minuten

geregisseerd door Arne Toonen
met Michael Nierse, Marcel Musters en Eva van der Gucht

Dik Trom is een vrolijke, eerlijke, beetje gezette jongen. Samen met zijn ouders woont hij in het knusse Dikkedam, waar iedereen net zo dik en uitbundig is als hij. Dan verhuist Dik met zijn ouders naar Dunhoven, waar niemand zo dik is als Dik. Het mooiste meisje van Dunhoven is Lieve, zo vindt Dik, maar Dik is niet de enige die zijn oog heeft laten vallen op de mooie Lieve. Ook Viktor, de brutale zoon van sportschoolhouder Dolf, dingt naar haar hand. De strijd tussen de twee kemphanen zal beslecht worden tijdens de lokale zomerwedstrijd.



 
http://www.moviemeter.nl/film/67812

Dik Trom is a cheerful, honest, regular little boy. Together with his parents, he lives in the cozy Dikkedam, where everyone is as thick and exuberant as he. Then moved with his parents to Dunhoven Dik, where no one is as thick as thick. The prettiest girl is Dunhoven Dear, is so thick, but Fat is not the only one who has dropped his eye on the beautiful Lady. Viktor Also, the brutal son of Dolf gym owner, is competing for her hand. The battle between the two adversaries will be settled during the local summer event. 






English

 
http://www.imdb.com/title/tt1711465/


Source.........: DVD5 NL Retail (PAL)
Formaat........: AVI
Video CODEC....: XVIX
Audio..........: Dutch AC3
Bitrate........: 2071 Kbit/s
Width & Height.: 720 x 32
Frames/s.......: 25.000 Fps


media info

General
Complete name                    : DIK TROM rental (2011) AC3 DD51 Nederlands\DIK TROM rental  2011.avi
Format                           : DivX
Format/Info                      : Hack of AVI
File size                        : 1.46 GiB
Duration                         : 1h 22mn
Overall bit rate                 : 2 520 Kbps

Video
ID                               : 0
Format                           : MPEG-4 Visual
Format profile                   : Advanced Simple@L5
Format settings, BVOP            : Yes
Format settings, QPel            : No
Format settings, GMC             : No warppoints
Format settings, Matrix          : Default (H.263)
Muxing mode                      : Packed bitstream
Codec ID                         : DX50
Codec ID/Hint                    : DivX 5
Duration                         : 1h 22mn
Bit rate                         : 2 062 Kbps
Width                            : 720 pixels
Height                           : 320 pixels
Display aspect ratio             : 2.25:1
Frame rate                       : 25.000 fps
Color space                      : YUV
Chroma subsampling               : 4:2:0
Bit depth                        : 8 bits
Scan type                        : Progressive
Bits/(Pixel*Frame)               : 0.358
Stream size                      : 1.19 GiB (82%)
Title                            : Video 
Writing library                  : XviD 1.2.1 (UTC 2008-12-04)

Audio
ID                               : 1
Format                           : AC-3
Format/Info                      : Audio Coding 3
Mode extension                   : CM (complete main)
Codec ID                         : 2000
Duration                         : 1h 22mn
Bit rate mode                    : Constant
Bit rate                         : 448 Kbps
Channel(s)                       : 6 channels
Channel positions                : Front: L C R, Side: L R, LFE
Sampling rate                    : 48.0 KHz
Bit depth                        : 16 bits
Stream size                      : 266 MiB (18%)
Alignment                        : Split accross interleaves
Interleave, duration             : 40 ms (1.00 video frame)
Interleave, preload duration     : 500 ms
Title                            : Audio 







Weblink :  http://www.moviemeter.nl/film/67812
Weblink :  http://www.imdb.com/title/tt1711465/

TBS


